<?xml version="1.0" encoding="UTF-8"?>
<svg width="16px" height="16px" viewBox="0 0 16 16" version="1.1" xmlns="http://www.w3.org/2000/svg" xmlns:xlink="http://www.w3.org/1999/xlink">
    <!-- Generator: Sketch 42 (36781) - http://www.bohemiancoding.com/sketch -->
    <title>默认图片</title>
    <desc>Created with Sketch.</desc>
    <defs></defs>
    <g id="切图" stroke="none" stroke-width="1" fill="none" fill-rule="evenodd">
        <g id="默认图片" fill="#E1E6E9">
            <path d="M3.23069328,4.94929121 C3.23069328,3.82537556 4.14133578,2.91698991 5.26525143,2.91698991 C6.38916708,2.91698991 7.29980958,3.82763241 7.29980958,4.94929121 C7.29980958,6.07095 6.38803865,6.9815925 5.26525143,6.9815925 C4.14246421,6.9815925 3.23069328,6.07095 3.23069328,4.94929121 Z M16,1.30784964 L16,14.6921504 C16,15.4143452 15.4143452,16 14.6921504,16 L1.30784964,16 C0.585654842,16 0,15.4143452 0,14.6921504 L1.25280827e-16,1.30784964 C1.25280827e-16,0.585654842 0.585654842,0 1.30784964,0 L14.6921504,0 C15.4132167,0.00112842937 15.9988716,0.586783271 16,1.30784964 Z M14.6582975,1.34283095 L1.34395938,1.34283095 L1.34395938,13.5998307 L4.78454052,9.08498484 C5.01135482,8.82093236 5.40291981,8.77692362 5.68389872,8.98455462 L8.30862543,11.319275 L13.4824741,4.53290077 C13.7092884,4.2688483 14.1008534,4.22483955 14.3818323,4.43247056 L14.6582975,4.67846816 L14.6582975,1.34283095 Z"></path>
        </g>
    </g>
</svg>