<?xml version="1.0" encoding="UTF-8"?>
<svg width="16px" height="16px" viewBox="0 0 16 16" version="1.1" xmlns="http://www.w3.org/2000/svg" xmlns:xlink="http://www.w3.org/1999/xlink">
    <!-- Generator: Sketch 42 (36781) - http://www.bohemiancoding.com/sketch -->
    <title>图片</title>
    <desc>Created with Sketch.</desc>
    <defs></defs>
    <g id="Page-1" stroke="none" stroke-width="1" fill="none" fill-rule="evenodd">
        <g id="图片">
            <g transform="translate(1.000000, 0.000000)" id="Combined-Shape">
                <path d="M10.7283587,-8.8817842e-16 L14,3.27164129 L14,14.5801067 C14,15.3642921 13.3620698,16 12.580561,16 L1.41943899,16 C0.635504482,16 0,15.372781 0,14.5801067 L0,1.41989326 C0,0.635707868 0.637930155,0 1.41943899,0 L10.7283587,0 Z M0.777777778,1.42883023 L0.777777778,14.5711698 C0.777777778,14.9553976 1.09329308,15.2727273 1.48250092,15.2727273 L12.5174991,15.2727273 C12.914605,15.2727273 13.2222222,14.9522639 13.2222222,14.5569524 L13.2222222,4.36365189 L9.33207704,4.36365189 L9.33207704,0.727272727 L1.47781199,0.727272727 C1.10267074,0.727272727 0.777777778,1.04137072 0.777777778,1.42883023 Z M2.25555556,14.5454545 L2.25555556,12.4675574 L5.05556861,7.27272727 L8.88999119,12.4675574 L11.5888889,10.3896311 L11.5888889,14.5454545 L2.25555556,14.5454545 Z M11.5888889,7.27272727 C11.5888889,8.0757943 10.8911249,8.72727273 10.0333623,8.72727273 C9.17452677,8.72727273 8.47777778,8.07576718 8.47777778,7.27272727 C8.47777778,6.46971448 9.17455577,5.81818182 10.0333623,5.81818182 C10.8911539,5.81818182 11.5888889,6.46968737 11.5888889,7.27272727 Z" fill="#666666"></path>
                <path d="M10.5012481,0.527930844 L10.1111111,0.527930844 L10.1111111,3.63636364 L13.4354073,3.63636364 L13.4354073,3.46209002 L10.5012481,0.527930844 Z" fill="#FFFFFF"></path>
            </g>
        </g>
    </g>
</svg>